# Blender v2.79 (sub 0) OBJ File: 'untitled.blend'
# www.blender.org
mtllib pyramide.mtl
o Cone.001_Cone.002
v 1.250000 0.000000 -3.750000
v 1.250000 1.082532 -2.500000
v 2.500000 0.000000 -2.500000
v 1.250000 0.000000 -1.250000
v 0.000000 0.000000 -2.500000
v 2.500000 0.000000 0.000000
v 2.500000 1.082532 1.250000
v 3.750000 0.000000 1.250000
v 2.500000 0.000000 2.500000
v 1.250000 0.000000 1.250000
v 1.250000 0.000000 1.250000
v 1.250000 1.082532 2.500000
v 2.500000 0.000000 2.500000
v 1.250000 0.000000 3.750000
v 0.000000 0.000000 2.500000
v 0.000000 0.000000 2.500000
v 0.000000 1.082532 3.750000
v 1.250000 0.000000 3.750000
v 0.000000 0.000000 5.000000
v -1.250000 0.000000 3.750000
v 3.750000 0.000000 -1.250000
v 3.750000 1.082532 0.000000
v 5.000000 0.000000 0.000000
v 3.750000 0.000000 1.250000
v 2.500000 0.000000 0.000000
v 2.500000 0.000000 -2.500000
v 2.500000 1.082532 -1.250000
v 3.750000 0.000000 -1.250000
v 2.500000 0.000000 0.000000
v 1.250000 0.000000 -1.250000
v 0.000000 3.247595 -1.250000
v 0.000000 4.330127 0.000000
v 1.250000 3.247595 0.000000
v 0.000000 3.247595 1.250000
v -1.250000 3.247595 0.000000
v 0.000000 2.165063 0.000000
v 0.000000 3.247595 1.250000
v 1.250000 2.165063 1.250000
v 0.000000 2.165063 2.500000
v -1.250000 2.165063 1.250000
v -1.250000 2.165063 -1.250000
v -1.250000 3.247595 0.000000
v 0.000000 2.165063 0.000000
v -1.250000 2.165063 1.250000
v -2.500000 2.165063 0.000000
v 1.250000 2.165063 -1.250000
v 1.250000 3.247595 0.000000
v 2.500000 2.165063 0.000000
v 1.250000 2.165063 1.250000
v 0.000000 2.165063 0.000000
v 0.000000 2.165063 -2.500000
v 0.000000 3.247595 -1.250000
v 1.250000 2.165063 -1.250000
v 0.000000 2.165063 0.000000
v -1.250000 2.165063 -1.250000
v 0.000000 1.082532 1.250000
v 0.000000 2.165063 2.500000
v 1.250000 1.082532 2.500000
v 0.000000 1.082532 3.750000
v -1.250000 1.082532 2.500000
v -1.250000 0.000000 1.250000
v -1.250000 1.082532 2.500000
v 0.000000 0.000000 2.500000
v -1.250000 0.000000 3.750000
v -2.500000 0.000000 2.500000
v 0.000000 0.000000 0.000000
v 0.000000 1.082532 1.250000
v 1.250000 0.000000 1.250000
v 0.000000 0.000000 2.500000
v -1.250000 0.000000 1.250000
v -2.500000 1.082532 -1.250000
v -2.500000 2.165063 0.000000
v -1.250000 1.082532 0.000000
v -2.500000 1.082532 1.250000
v -3.750000 1.082532 0.000000
v -2.500000 0.000000 0.000000
v -2.500000 1.082532 1.250000
v -1.250000 0.000000 1.250000
v -2.500000 0.000000 2.500000
v -3.750000 0.000000 1.250000
v -3.750000 0.000000 -1.250000
v -3.750000 1.082532 0.000000
v -2.500000 0.000000 0.000000
v -3.750000 0.000000 1.250000
v -5.000000 0.000000 0.000000
v -1.250000 0.000000 -1.250000
v -1.250000 1.082532 0.000000
v 0.000000 0.000000 0.000000
v -1.250000 0.000000 1.250000
v -2.500000 0.000000 0.000000
v -2.500000 0.000000 -2.500000
v -2.500000 1.082532 -1.250000
v -1.250000 0.000000 -1.250000
v -2.500000 0.000000 0.000000
v -3.750000 0.000000 -1.250000
v 2.500000 1.082532 -1.250000
v 2.500000 2.165063 0.000000
v 3.750000 1.082532 0.000000
v 2.500000 1.082532 1.250000
v 1.250000 1.082532 0.000000
v 1.250000 0.000000 -1.250000
v 1.250000 1.082532 0.000000
v 2.500000 0.000000 0.000000
v 1.250000 0.000000 1.250000
v 0.000000 0.000000 0.000000
v 0.000000 1.082532 -3.750000
v 0.000000 2.165063 -2.500000
v 1.250000 1.082532 -2.500000
v 0.000000 1.082532 -1.250000
v -1.250000 1.082532 -2.500000
v 0.000000 0.000000 -2.500000
v 0.000000 1.082532 -1.250000
v 1.250000 0.000000 -1.250000
v 0.000000 0.000000 0.000000
v -1.250000 0.000000 -1.250000
v -1.250000 0.000000 -3.750000
v -1.250000 1.082532 -2.500000
v 0.000000 0.000000 -2.500000
v -1.250000 0.000000 -1.250000
v -2.500000 0.000000 -2.500000
v 0.000000 0.000000 -5.000000
v 0.000000 1.082532 -3.750000
v 1.250000 0.000000 -3.750000
v 0.000000 0.000000 -2.500000
v -1.250000 0.000000 -3.750000
vn 0.5477 0.6325 -0.5477
vn 0.5477 0.6325 0.5477
vn -0.5477 0.6325 0.5477
vn -0.5477 0.6325 -0.5477
vn 0.0000 -1.0000 0.0000
usemtl Orange
s off
f 1//1 2//1 3//1
f 3//2 2//2 4//2
f 4//3 2//3 5//3
f 5//4 2//4 1//4
f 1//5 3//5 4//5 5//5
f 6//1 7//1 8//1
f 8//2 7//2 9//2
f 9//3 7//3 10//3
f 10//4 7//4 6//4
f 6//5 8//5 9//5 10//5
f 11//1 12//1 13//1
f 13//2 12//2 14//2
f 14//3 12//3 15//3
f 15//4 12//4 11//4
f 11//5 13//5 14//5 15//5
f 16//1 17//1 18//1
f 18//2 17//2 19//2
f 19//3 17//3 20//3
f 20//4 17//4 16//4
f 16//5 18//5 19//5 20//5
f 21//1 22//1 23//1
f 23//2 22//2 24//2
f 24//3 22//3 25//3
f 25//4 22//4 21//4
f 21//5 23//5 24//5 25//5
f 26//1 27//1 28//1
f 28//2 27//2 29//2
f 29//3 27//3 30//3
f 30//4 27//4 26//4
f 26//5 28//5 29//5 30//5
f 31//1 32//1 33//1
f 33//2 32//2 34//2
f 34//3 32//3 35//3
f 35//4 32//4 31//4
f 31//5 33//5 34//5 35//5
f 36//1 37//1 38//1
f 38//2 37//2 39//2
f 39//3 37//3 40//3
f 40//4 37//4 36//4
f 36//5 38//5 39//5 40//5
f 41//1 42//1 43//1
f 43//2 42//2 44//2
f 44//3 42//3 45//3
f 45//4 42//4 41//4
f 41//5 43//5 44//5 45//5
f 46//1 47//1 48//1
f 48//2 47//2 49//2
f 49//3 47//3 50//3
f 50//4 47//4 46//4
f 46//5 48//5 49//5 50//5
f 51//1 52//1 53//1
f 53//2 52//2 54//2
f 54//3 52//3 55//3
f 55//4 52//4 51//4
f 51//5 53//5 54//5 55//5
f 56//1 57//1 58//1
f 58//2 57//2 59//2
f 59//3 57//3 60//3
f 60//4 57//4 56//4
f 56//5 58//5 59//5 60//5
f 61//1 62//1 63//1
f 63//2 62//2 64//2
f 64//3 62//3 65//3
f 65//4 62//4 61//4
f 61//5 63//5 64//5 65//5
f 66//1 67//1 68//1
f 68//2 67//2 69//2
f 69//3 67//3 70//3
f 70//4 67//4 66//4
f 66//5 68//5 69//5 70//5
f 71//1 72//1 73//1
f 73//2 72//2 74//2
f 74//3 72//3 75//3
f 75//4 72//4 71//4
f 71//5 73//5 74//5 75//5
f 76//1 77//1 78//1
f 78//2 77//2 79//2
f 79//3 77//3 80//3
f 80//4 77//4 76//4
f 76//5 78//5 79//5 80//5
f 81//1 82//1 83//1
f 83//2 82//2 84//2
f 84//3 82//3 85//3
f 85//4 82//4 81//4
f 81//5 83//5 84//5 85//5
f 86//1 87//1 88//1
f 88//2 87//2 89//2
f 89//3 87//3 90//3
f 90//4 87//4 86//4
f 86//5 88//5 89//5 90//5
f 91//1 92//1 93//1
f 93//2 92//2 94//2
f 94//3 92//3 95//3
f 95//4 92//4 91//4
f 91//5 93//5 94//5 95//5
f 96//1 97//1 98//1
f 98//2 97//2 99//2
f 99//3 97//3 100//3
f 100//4 97//4 96//4
f 96//5 98//5 99//5 100//5
f 101//1 102//1 103//1
f 103//2 102//2 104//2
f 104//3 102//3 105//3
f 105//4 102//4 101//4
f 101//5 103//5 104//5 105//5
f 106//1 107//1 108//1
f 108//2 107//2 109//2
f 109//3 107//3 110//3
f 110//4 107//4 106//4
f 106//5 108//5 109//5 110//5
f 111//1 112//1 113//1
f 113//2 112//2 114//2
f 114//3 112//3 115//3
f 115//4 112//4 111//4
f 111//5 113//5 114//5 115//5
f 116//1 117//1 118//1
f 118//2 117//2 119//2
f 119//3 117//3 120//3
f 120//4 117//4 116//4
f 116//5 118//5 119//5 120//5
f 121//1 122//1 123//1
f 123//2 122//2 124//2
f 124//3 122//3 125//3
f 125//4 122//4 121//4
f 121//5 123//5 124//5 125//5
